<?xml version="1.0" encoding="utf-8"?>
<!-- Generator: Adobe Illustrator 23.1.1, SVG Export Plug-In . SVG Version: 6.00 Build 0)  -->
<svg version="1.1" id="Capa_1" xmlns="http://www.w3.org/2000/svg" xmlns:xlink="http://www.w3.org/1999/xlink" x="0px" y="0px"
	 viewBox="0 0 93.6 93.1" style="enable-background:new 0 0 93.6 93.1;" xml:space="preserve">
<style type="text/css">
	.st0{fill:#95AFEC;}
	.st1{fill:#E9E9EB;}
	.st2{fill:#4C3C2D;}
</style>
<circle class="st0" cx="66.6" cy="26.7" r="25.4"/>
<g>
	<path class="st1" d="M60.7,26.5c0-4.7,2.6-7.3,5.9-7.3c3.4,0,5.9,2.6,5.9,7.3s-2.6,7.3-5.9,7.3C63.3,33.9,60.7,31.2,60.7,26.5z
		 M69.9,26.5c0-3.4-1.3-5-3.3-5c-1.9,0-3.3,1.6-3.3,5s1.3,5,3.3,5C68.6,31.6,69.9,30,69.9,26.5z"/>
</g>
<g>
	<path class="st2" d="M48.5,76.3H10.1c-1,0-1.8-0.8-1.8-1.8V45.9H3.1c-1,0-1.8-0.8-1.8-1.8s0.8-1.8,1.8-1.8h7c1,0,1.8,0.8,1.8,1.8
		v28.6h36.7c1,0,1.8,0.8,1.8,1.8S49.5,76.3,48.5,76.3z"/>
	<path class="st2" d="M40.5,70.3H10.1c-1,0-1.8-0.8-1.8-1.8s0.8-1.8,1.8-1.8h29l3.3-14.4H10.1c-1,0-1.8-0.8-1.8-1.8s0.8-1.8,1.8-1.8
		h34.5c0.5,0,1,0.2,1.4,0.7c0.3,0.4,0.5,1,0.3,1.5L42.2,69C42,69.8,41.3,70.3,40.5,70.3z"/>
	<path class="st2" d="M13,92c-3.7,0-6.8-3-6.8-6.8s3-6.8,6.8-6.8s6.8,3,6.8,6.8S16.8,92,13,92z M13,82c-1.8,0-3.2,1.5-3.2,3.2
		s1.5,3.2,3.2,3.2s3.3-1.5,3.3-3.2S14.8,82,13,82z"/>
	<path class="st2" d="M44.6,92c-3.7,0-6.8-3-6.8-6.8s3-6.8,6.8-6.8s6.8,3,6.8,6.8S48.4,92,44.6,92z M44.6,82c-1.8,0-3.2,1.5-3.2,3.2
		s1.5,3.2,3.2,3.2s3.2-1.5,3.2-3.2S46.4,82,44.6,82z"/>
</g>
</svg>
