<svg version="1.1" xmlns="http://www.w3.org/2000/svg" xmlns:xlink="http://www.w3.org/1999/xlink" style="" xml:space="preserve" width="93.6" height="93.1"><rect id="backgroundrect" width="100%" height="100%" x="0" y="0" fill="none" stroke="none"/>
<style type="text/css">
	.st0{fill:#95AFEC;}
	.st1{fill:#E9E9EB;}
	.st2{fill:#4C3C2D;}
</style>



<g class="currentLayer" style=""><title>Layer 1</title><g id="svg_4" class="">
	<path class="st2" d="M80.15552837089672,62.77052118010397 H19.53909369046096 c-1.5785530805587769,0 -2.841395469734522,-1.2432392305618407 -2.841395469734522,-2.7972881529784672 V15.527428751440311 H8.489221373836756 c-1.5785530805587769,0 -2.841395469734522,-1.2432392305618407 -2.841395469734522,-2.7972881529784672 s1.2628424832648406,-2.7972881529784672 2.841395469734522,-2.7972881529784672 h11.049871563911438 c1.5785530805587769,0 2.841395469734522,1.2432392305618407 2.841395469734522,2.7972881529784672 v44.4458024231144 h57.932899260847535 c1.5785530805587769,0 2.841395469734522,1.2432392305618407 2.841395469734522,2.7972881529784672 S81.7340814514555,62.77052118010397 80.15552837089672,62.77052118010397 z" id="svg_5"/>
	<path class="st2" d="M67.5271037264265,53.44622708983297 H19.53909369046096 c-1.5785530805587769,0 -2.841395469734522,-1.2432392305618407 -2.841395469734522,-2.7972881529784672 s1.2628424832648406,-2.7972881529784672 2.841395469734522,-2.7972881529784672 h45.77803933620453 l5.209225090572687,-22.378305223827738 H19.53909369046096 c-1.5785530805587769,0 -2.841395469734522,-1.2432392305618407 -2.841395469734522,-2.7972881529784672 s1.2628424832648406,-2.7972881529784672 2.841395469734522,-2.7972881529784672 h54.4600812792778 c0.7892765402793884,0 1.5785530805587769,0.3108098076404602 2.2099742751466493,1.0878342920059083 c0.4735659429854522,0.6216196152809204 0.7892765402793884,1.554049015045166 0.4735659429854522,2.331073522567749 L70.21065118941897,51.425958627693035 C69.89493334726467,52.66920258231039 68.78995100823522,53.44622708983297 67.5271037264265,53.44622708983297 z" id="svg_6"/>
	<path class="st2" d="M24.1168970219112,87.16908597373185 c-5.840646473338751,0 -10.734161248884789,-4.662147045135498 -10.734161248884789,-10.567533598718455 s4.735659241676331,-10.567533598718455 10.734161248884789,-10.567533598718455 s10.734161248884789,4.662147045135498 10.734161248884789,10.567533598718455 S30.115397523694128,87.16908597373185 24.1168970219112,87.16908597373185 zM24.1168970219112,71.6285958232802 c-2.841395469734522,0 -5.051369933059362,2.331073522567749 -5.051369933059362,4.972956922247363 s2.3678296208381653,4.972956922247363 5.051369933059362,4.972956922247363 s5.209225090572687,-2.331073522567749 5.209225090572687,-4.972956922247363 S26.958294373427634,71.6285958232802 24.1168970219112,71.6285958232802 z" id="svg_7"/>
	<path class="st2" d="M73.99916894803664,87.16908597373185 c-5.840646473338751,0 -10.734161248884789,-4.662147045135498 -10.734161248884789,-10.567533598718455 s4.735659241676331,-10.567533598718455 10.734161248884789,-10.567533598718455 s10.734161248884789,4.662147045135498 10.734161248884789,10.567533598718455 S79.99767547152169,87.16908597373185 73.99916894803664,87.16908597373185 zM73.99916894803664,71.6285958232802 c-2.841395469734522,0 -5.051369933059362,2.331073522567749 -5.051369933059362,4.972956922247363 s2.3678296208381653,4.972956922247363 5.051369933059362,4.972956922247363 s5.051369933059362,-2.331073522567749 5.051369933059362,-4.972956922247363 S76.84056931040413,71.6285958232802 73.99916894803664,71.6285958232802 z" id="svg_8"/>
</g></g></svg>