<?xml version="1.0" encoding="utf-8"?>
<!-- Generator: Adobe Illustrator 23.1.1, SVG Export Plug-In . SVG Version: 6.00 Build 0)  -->
<svg version="1.0" id="TYPE__x26__ICONS" xmlns="http://www.w3.org/2000/svg" xmlns:xlink="http://www.w3.org/1999/xlink" x="0px"
	 y="0px" viewBox="0 0 283.81 148.66" style="enable-background:new 0 0 283.81 148.66;" xml:space="preserve">
<style type="text/css">
	.st0{fill:#525175;}
</style>
<g>
	<g>
		<path class="st0" d="M58.33,50.05c1.72,0.19,2.66,0.73,2.8,1.61c0.2,1.27-0.33,3.2-1.61,5.77l0.24,0.3
			c-0.5,3.22-2.01,6.9-4.53,11.04c-1.45,2.27-2.13,3.7-2.03,4.29l0.08,0.48c0.31,1.91,1.13,2.76,2.46,2.54
			c2.86-0.34,6.14-2.68,9.84-7.01c1.95-3.01,3.11-4.54,3.47-4.6c0.18,1.13-0.18,2.63-1.1,4.52c-0.96,1.44-2.41,3.2-4.34,5.27
			c-2.69,2.73-5,4.25-6.91,4.57c-2.28,0.38-4.35-0.49-6.2-2.6c-2.19,2.32-4.2,3.86-6.05,4.61l-2,0.33c-2.4-0.26-3.75-1.24-4.02-2.96
			c-0.15-0.18-0.25-0.39-0.29-0.63c0.16-2.56,1.83-5.53,5.02-8.89C44.49,67.36,46.1,66.47,48,66c1.05,0.18,1.74,0.24,2.08,0.18
			l0.33-0.05c0.02-2.04,0.68-4.54,1.99-7.52c0.17-1.11,0.89-2.66,2.16-4.65C56.04,51.52,57.29,50.22,58.33,50.05z M41.43,76.88
			l0.18,1.14c0.06,0.37,0.7,0.5,1.93,0.4c1.39-0.46,3.13-1.95,5.21-4.48c0.72-1.22,1.06-1.97,1.02-2.24
			c-0.68-0.64-1.1-1.48-1.26-2.5l-0.11-0.7c-0.12,0.02-0.3,0-0.53-0.06c-2.01,0.33-4.07,2.61-6.17,6.86
			C41.47,76.09,41.38,76.61,41.43,76.88z M53.66,65.26l0.14-0.02c0.4-0.16,1.28-1.8,2.64-4.92l1.67-5.4l-0.11-0.66
			c-1.42,0.59-2.9,4.09-4.43,10.49L53.66,65.26z"/>
		<path class="st0" d="M68.44,63.88l0.29-0.05c0.53-0.09,0.96,0.09,1.28,0.54l0.07,0.44c-1.14,3.41-1.56,6.09-1.24,8.05l0.26,1.61
			c0.12,0.76,0.5,1.25,1.13,1.47l1.16-0.19c1.28-0.21,3.32-2.06,6.12-5.53c0.29-0.05,0.53-0.39,0.73-1.02
			c0.14-0.02,1.23-1.61,3.26-4.76c0.15-0.02,0.24-0.34,0.29-0.95c0.52-0.49,0.92-0.76,1.22-0.8l0.15-0.02
			c0.2-0.01,0.31,0.08,0.34,0.25c-0.4,2.75-1.61,5.77-3.62,9.04c-2.43,3.27-4.64,5.34-6.61,6.21l-1.41,0.53
			c-3.46,0.17-5.42-1.22-5.9-4.16c-0.12,0.02-0.27-0.26-0.43-0.83c0.1-3.98,0.75-6.76,1.94-8.31L68.44,63.88z M74.5,50.52
			c1.05,0.03,1.6,0.04,1.65,0.03l0.07,0.44c-0.16,1.16-1.52,2.94-4.06,5.34c-1.29,1.12-2.28,1.73-2.99,1.85
			c-0.99,0.04-1.55-0.37-1.69-1.23c-0.12-0.73,1.25-2.11,4.11-4.14C72.26,52.1,73.24,51.33,74.5,50.52z"/>
		<path class="st0" d="M86.77,57.4c1.8,0.06,2.82,0.8,3.04,2.22c-0.11,2.43-0.55,3.71-1.32,3.83c-0.1,0.02-0.24,0.09-0.41,0.22
			c-0.51,0.08-0.94-0.14-1.3-0.69c0.2-1.24,0.24-2.2,0.13-2.88c-0.03-0.2-0.15-0.28-0.34-0.25c-1.71,0.53-2.49,1.22-2.36,2.05
			c0.36,2.23,1.59,4.34,3.71,6.33l0.31,0.1c0.46-0.53,1.33-1.32,2.6-2.39c2.65-2.4,5.22-3.9,7.71-4.51
			c1.06-0.98,1.92-1.52,2.57-1.63l0.19,0.27l0.07,0.44c-0.41,0.07-1.27,0.91-2.58,2.54c-1.78,1.42-4.58,3.67-8.39,6.73l-0.46,0.83
			c0.99,1.19,1.61,2.6,1.87,4.22c-0.23,2.1-1.27,3.98-3.12,5.64c-1.38,1.61-3.14,2.75-5.27,3.43c-2.68,0.04-4.13-0.63-4.35-2
			l-0.12-0.73c-0.13-0.81,0.43-1.96,1.68-3.45c0.85-1.55,2.71-3.86,5.6-6.95l0.1-0.32l-0.05-0.29c-2.87-2.99-4.47-5.5-4.79-7.5
			c-0.17-2.28,0.38-3.53,1.64-3.74C84.39,58.22,85.6,57.71,86.77,57.4z M81.94,81.11l0.02,0.15c0.1,0.29,0.46,0.38,1.09,0.27
			c1.6-0.26,3.4-1.71,5.42-4.36c-0.02-0.12,0.17-0.81,0.57-2.05l-0.19-1.18c-0.04-0.24-0.21-0.67-0.51-1.28l-0.58,0.1
			C83.72,77.35,81.78,80.13,81.94,81.11z"/>
		<path class="st0" d="M109.56,41.13c1.07-0.18,1.98,0.48,2.74,1.96c0.43,2.64-0.11,5.48-1.61,8.52c-0.13,1.05-1.82,3.54-5.07,7.47
			l0.02,0.15c0.81,0.67,1.25,1.27,1.34,1.81l0.45,2.79c2.36,0.42,4.06,0.2,5.12-0.67c1.05-0.86,2.15-2.18,3.28-3.95
			c0.92-1.54,1.41-2.31,1.46-2.31l-0.05-0.29l0.65-0.11l0.2,1.25c-0.82,2.64-1.59,4.59-2.32,5.84c-0.73,1.25-1.78,2.25-3.14,2.99
			c-1.36,0.74-3.09,0.94-5.19,0.61l-0.22,0.04c0.08,0.51-0.22,4.32-0.92,11.42c-0.13,1.33-1.04,4.41-2.73,9.23
			c-1.06,1.13-1.97,1.76-2.72,1.88c-1.85-0.35-2.92-1.44-3.22-3.28c-0.09-0.54-0.13-1.44-0.14-2.69c-0.18-0.52-0.3-0.91-0.34-1.19
			c0.15-3.39,0.41-7.26,0.78-11.59l0.41-3.69l-0.19-0.27c0.12-1.58,0.43-3.01,0.95-4.3l-0.02-0.11c-0.47-1.66-0.35-2.54,0.35-2.66
			c0.07-0.01,0.33-0.44,0.76-1.29l-0.19-0.27c0.8-2.92,1.48-4.73,2.04-5.43c0.23-2.1,0.69-3.2,1.37-3.32l-0.01-0.07
			c-0.13-0.18-0.2-0.36-0.23-0.53c2.18-4.86,4.07-7.41,5.67-7.68L109.56,41.13z M101.85,62.98c-0.56,1.15-0.95,3.52-1.16,7.13
			c-0.48,7.84-0.54,12.88-0.18,15.11c0.16,0.35,0.27,0.73,0.33,1.15c0.92-0.15,2-3.71,3.24-10.67c0.38-4.61,0.59-7.85,0.63-9.72
			C103.57,65.01,102.62,64.01,101.85,62.98z M103.14,57.57l0.04,0c2.88-3.26,4.56-5.32,5.05-6.19c1.38-2.38,1.95-4.34,1.7-5.86
			l-0.25,0.04l0.17-0.56l-0.16-0.99c-0.01-0.07-0.08-0.1-0.2-0.08c-1.48,1.5-2.75,3.64-3.81,6.43
			C103.89,54.55,103.05,56.95,103.14,57.57z"/>
		<path class="st0" d="M126.21,50.61c0.51-0.08,1.1,0.46,1.79,1.63c0.17,1.03-0.75,3.78-2.74,8.25c-0.59,2.08-0.78,3.7-0.6,4.85
			c0.07,0.42,0.34,0.58,0.83,0.51l0.62-0.1c2.09-1.07,4.99-4.46,8.7-10.18c0.73-0.27,1.04-0.75,0.93-1.43c0-0.17,0.07-0.27,0.21-0.3
			l0.11-0.02c0.12-0.02,0.26,0.09,0.43,0.31l0.06,0.37c0.06,0.39-0.26,1.21-0.98,2.46c-0.18,1.21-1.45,3.44-3.81,6.69
			c-1.59,2.02-3.3,3.55-5.12,4.58l-0.47,0.08c-1.94,0.32-3.35-0.27-4.24-1.75c-0.04-0.24-0.1-0.36-0.17-0.35
			c0.02-0.33,0.08-0.5,0.18-0.52l-0.19-0.23l-0.14-0.88c0.01-1.61,0.83-3.97,2.44-7.07c-0.03-0.2,0.28-0.84,0.92-1.92
			c0.35-1.04,0.51-1.7,0.46-2l-0.02-0.15l-0.51,0.08c-1.78,1.42-3.47,2.27-5.04,2.53l-0.11,0.02c-0.1,0.02-0.63,0.96-1.6,2.82
			c-0.24,0.19-0.47,0.31-0.69,0.34l-0.11,0.02c-0.44,0.07-0.87-0.2-1.29-0.8c-0.02-0.45,0.28-0.96,0.91-1.55
			c-0.02-0.15,0.02-0.37,0.12-0.66l-1-0.85l-0.02-0.15c-0.07-0.47,0.14-0.93,0.64-1.39l0.87-0.14l1.78-0.78l0.97,0.48
			c2.1-0.87,3.74-1.71,4.93-2.51C125.58,50.82,125.9,50.73,126.21,50.61z"/>
		<path class="st0" d="M136.77,52.94c0.41-0.07,0.93,0.05,1.55,0.35c0.06,0.34-0.56,2.05-1.86,5.13c-0.28,0.9-0.35,2.32-0.21,4.25
			c0.26,0.41,0.5,0.62,0.7,0.64c0.97-0.16,2.71-1.7,5.23-4.63c1.26-1.74,2.69-3.99,4.29-6.74c0.65-0.31,1.22-0.5,1.7-0.58l0.44-0.07
			c0.14-0.02,0.38,0.19,0.7,0.64c0.03,0.19-0.42,1.07-1.37,2.63c-0.3,0.63-0.59,1.88-0.89,3.76l0.21,1.32
			c0.02,0.13,0.3,0.33,0.85,0.62c1.43-0.24,3.95-2.96,7.56-8.18c0.6-1.21,1.22-2.01,1.85-2.42l0.14-0.02
			c0.2-0.01,0.31,0.07,0.34,0.24c-0.36,2.4-1.86,5.61-4.49,9.64c-1.58,1.97-3.23,3.09-4.98,3.38l-0.14,0.02
			c-1.72,0.28-3.23-0.72-4.52-3.03c-2.57,3.54-4.31,5.38-5.23,5.53c-0.65,0.31-1.21,0.5-1.7,0.58c-1.6,0.26-2.79-0.65-3.58-2.73
			l-0.02-0.15c-0.47-2.91,0.35-6.17,2.46-9.75C136,53.37,136.32,53.21,136.77,52.94z"/>
		<path class="st0" d="M163.4,25.72l0.76,0.06l0.81-0.32c0.53,0.49,0.81,0.87,0.85,1.14c0.11,0.66-0.54,2.81-1.94,6.46
			c0.1,0.31,0.26,0.45,0.48,0.41l2.36-0.39c0.45-0.3,4.53-1.4,12.23-3.3l2.24-0.71l0.7-0.3c0.87-0.02,1.62-0.08,2.25-0.18
			c0.16-0.23,1.09-0.56,2.79-0.98c0.53,0.04,1.02,0.02,1.48-0.06l0.58-0.09c0.24-0.04,0.43-0.12,0.56-0.24l0.28,0.11
			c1.05-0.42,1.77-0.67,2.16-0.73c0.53-0.09,1.13-0.06,1.8,0.08c0.35-0.31,0.71-0.49,1.1-0.56l1.74-0.29
			c0.24-0.04,0.43-0.12,0.56-0.24c0.16,0.07,0.36,0.09,0.61,0.05l1.02-0.17c0.41-0.07,0.79-0.18,1.14-0.34
			c0.38,0.04,0.78,0.02,1.19-0.05c-1.34,0.37-0.53,0.31,2.4-0.17c-0.03-0.02,0.07-0.05,0.28-0.08c0.28-0.27,0.54-0.43,0.78-0.47
			c1.42-0.13,2.24-0.22,2.46-0.26L207.05,24l1.1,0.12L212.9,23l0.9,0l1.76-0.63l0.21,0.34l1.79-0.48l1.89-0.31
			c0.17-0.03,0.26,0.02,0.28,0.14c-0.05,0.01-0.08-0.05-0.1-0.17l1.53-0.44c0.87-0.02,1.52-0.06,1.96-0.13l0.09,0.55l-1.03-0.4
			l0.91-0.15c0.36-0.06,0.77-0.19,1.24-0.4l0.32,0.14l2.16-0.73l0.75,0.25c0.14-0.02,0.3-0.11,0.48-0.27
			c0.19-0.03,0.3,0.02,0.32,0.14c1.02-0.29,1.78-0.48,2.26-0.56l2.91-0.48l0.84-0.33c0.23,0.06,0.36,0.17,0.39,0.31
			c0.27-0.04,0.67-0.22,1.22-0.54l0.78,0.21c0.18-0.16,0.38-0.13,0.61,0.09l0.04-0.01l0.08,0.48l0.51-0.08
			c-0.01-0.7,0.04-1.06,0.16-1.08l3.42-0.56l0.75,0.93l0.73-0.12c0.05-0.49,0.06-0.79,0.04-0.91c0.05-0.01,0.08,0.06,0.11,0.21
			l-0.39-0.31c0.53-0.09,1.26,0.15,2.17,0.7c0.29-0.05,0.41-0.26,0.34-0.62l-0.43,0.07l0.3-0.42l0.43-0.15
			c0.2,0.77,0.58,1.11,1.13,1.02c-0.11-0.68-0.63-0.89-1.55-0.61l2.4-0.4l-0.08,0.88l0.44-0.07c0.36-0.06,0.69-0.29,0.97-0.69
			c0.26-0.04,0.62,0.09,1.07,0.39l0.39-0.33l-0.25-0.41l-0.02-0.11c0.01,0.07,0.04,0.1,0.09,0.09c-0.02-0.12,0.43,0.03,1.34,0.46
			l0.58-0.1c-0.06-0.37,0.2-0.7,0.77-0.99c0.16,0.07,0.38,0.09,0.64,0.04c-0.19,0.18-0.09,0.24,0.33,0.17
			c-0.02-0.12,0.16-0.1,0.53,0.06c0.07-0.01,0.27-0.11,0.59-0.28l0.54-0.09c0,0.02,0.05-0.1,0.13-0.36l0.65-0.11
			c0.03,0.05,0.08,0.24,0.13,0.58l0.39,0.31c-0.24,0.04-0.59-0.05-1.05-0.28l-0.04-0.22l0.32,0.13c-0.97,0.49-1.49,0.73-1.56,0.75
			l-0.73,0.12c-0.34,0.06-0.8,0.08-1.37,0.08l-0.53,0.43c-0.65-0.02-1.18,0-1.59,0.07l-0.18,0.03c-0.61,0.53-0.94,0.67-0.98,0.43
			c-0.34-0.12-0.65-0.16-0.91-0.11c-0.28,0.3-0.49,0.46-0.63,0.48l-0.87-0.08c0.02,0.12,0.04,0.24,0.06,0.37l-0.95,0.16l-0.05-0.33
			l-0.29,0.05c-0.15,0.28-0.83,0.57-2.03,0.86c-0.02-0.12-0.25-0.15-0.69-0.08c0.03,0-0.06,0.01-0.25,0.04
			c-0.91,0.4-1.56,0.63-1.98,0.7l-1.08-0.01l-0.49,0.42l-0.75-0.03c-0.24,0.04-0.85,0.26-1.84,0.64c-1.39,0-2.18-0.11-2.37-0.33
			l-0.25,0.04c-0.26,0.39-0.45,0.6-0.57,0.62c-0.35-0.17-0.67-0.23-0.96-0.18l-0.15,0.02c-0.19,0.03-0.83,0.43-1.9,1.18l-0.28-0.11
			l-3.24,0.53c-0.36,0.06-0.78,0.18-1.25,0.36c-0.18-0.07-0.4-0.08-0.64-0.04c-0.56,0.09-0.82,0.22-0.8,0.4
			c-0.29-0.13-0.66-0.16-1.09-0.09l-0.87,0.14c-0.1,0.02-0.47,0.19-1.11,0.52l-0.58,0.1c-0.22,0.04-0.67,0-1.36-0.11L217,25.26
			c-0.07,0.01-0.22-0.03-0.43-0.12c-2.95,0.71-5.46,1.24-7.55,1.58l-0.58,0.1c-0.36,0.06-0.79,0.19-1.28,0.4L206.42,27l-4.2,1.03
			l-0.76-0.07c-0.34,0.21-0.5,0.35-0.49,0.42l-1.37,0.07l-2.04,0.33c-0.56,0.09-1.27,0.34-2.12,0.73c-0.29,0.05-0.53,0.03-0.72-0.07
			l-4.93,1.15l-0.9-0.04c-0.69,0.37-1.15,0.57-1.4,0.61l-1.48,0.06c-6.22,1.4-14.14,3.45-23.76,6.13c0.08,0.01-0.14,0.65-0.66,1.92
			c0.04,0.27-0.47,2.05-1.53,5.34c-0.96,5.76-1.42,8.79-1.37,9.08c0.02,0.12,0.09,0.29,0.23,0.49c-0.1,1.22-0.05,2.45,0.14,3.67
			l0.25,1.54c0.48,1.41,1.41,1.99,2.79,1.77c1.58-0.26,4.28-2.17,8.11-5.74c1.13-0.99,2.12-1.97,2.96-2.94
			c1.04-1.58,2.18-3.74,3.43-6.48l0.27,0.3c0.02,1.53-0.16,2.93-0.55,4.2c-2.49,4.31-4.34,6.85-5.53,7.62
			c-0.5,0.74-1.31,1.57-2.43,2.51c-2.19,2.12-4.17,3.32-5.91,3.61c-2.06,0.04-3.64-0.44-4.75-1.44c-0.07-0.44-0.41-0.97-1-1.57
			l0.1-0.32l-0.06-0.37c-0.07-0.41-0.28-0.81-0.64-1.18l-0.05-0.29l0.21-0.56l-0.16-1.03c-0.07-0.42-0.1-0.95-0.11-1.6
			c-0.13-0.2-0.2-0.36-0.22-0.45c0.02-1.76,0.28-3.85,0.78-6.27c-0.08-1.44,0.13-2.6,0.64-3.46c0.05-1.56,0.3-2.78,0.76-3.63
			c0.47-1.43,0.67-2.34,0.6-2.74c-0.14,0.02-0.32-0.01-0.54-0.1l-12.15,4.49c-0.92-0.3-1.54-0.7-1.87-1.2l0-0.91l0.23-0.87
			c7.69-3.07,13.06-5.04,16.11-5.89c1.13-2.4,1.65-3.91,1.54-4.55c0.28-0.55,0.73-2.02,1.34-4.41L163.4,25.72z M241.38,18.39
			l0.8-0.13l0.12,0.77l-0.25,0.98c-0.45-0.18-0.85-0.24-1.19-0.18C240.74,19.04,240.91,18.56,241.38,18.39z M251.36,16.86
			l-0.65,0.11l-0.12-0.77l0.65-0.11L251.36,16.86z M256.53,15.56l0.21,1.28l-1.24,0.2l-0.21-1.28L256.53,15.56z M258.54,16.01
			l-0.66,0.11l-0.12-0.77l0.66-0.11L258.54,16.01z M259.14,16.03c-0.45,0-0.71-0.2-0.77-0.59l0.66-0.11L259.14,16.03z M259.87,15.91
			c0.05-0.01,0.09,0.09,0.12,0.28l1.22-0.54l-1.71,0.28L259.87,15.91z M262.2,15.11l0.04,0.22c0.05-0.01-0.03,0.13-0.23,0.42
			l-0.07,0.01C261.64,15.48,261.73,15.26,262.2,15.11z M263.74,15.88l-0.65,0.11l-0.12-0.77l0.65-0.11L263.74,15.88z M267.64,14.33
			c0,0-0.26,0.04-0.76,0.13l-0.01-0.07l0.36-0.06l0.02,0.15l0.1,0.13C267.54,14.42,267.64,14.33,267.64,14.33z"/>
		<path class="st0" d="M182.68,43.46c0.97-0.16,2.18,0.24,3.63,1.21c1.26-0.21,1.96,0.13,2.11,1.01c0.1-0.02,0.15,0.02,0.17,0.12
			c-0.96,2.7-1.3,4.91-1.02,6.65l0.07,0.44c0.34,0.85,0.65,1.25,0.94,1.2l0.87-0.14c1.36-0.22,3.34-2.46,5.94-6.71
			c-0.04-0.27,0.54-0.97,1.75-2.1c0.08-0.74,0.38-1.34,0.9-1.8l0.14-0.02c0.04,0.27,0.19,0.55,0.43,0.83
			c-0.31,1.81-0.91,3.54-1.81,5.2c-2.54,4.79-4.92,7.37-7.15,7.73c-2.01,0.33-3.71-0.6-5.08-2.78l-0.05-0.29l-0.44,0.07
			c-3.05,3.62-5.57,5.59-7.56,5.92l-0.44,0.07c-1.89,0.31-3.27-0.51-4.13-2.48l-0.05-0.29c-0.43-2.67,1.11-5.79,4.61-9.35l3.65-3.32
			C180.13,44.28,180.96,43.9,182.68,43.46z M175.06,56.33l0.16,1.03c0.06,0.2,0.17,0.28,0.34,0.25l0.29-0.05
			c1.77-0.29,3.92-2.1,6.44-5.43c1.53-2.21,2.22-3.83,2.05-4.86l-0.02-0.15c-0.19-1.18-0.72-1.69-1.59-1.55
			c-2.23,1.17-4.44,3.45-6.66,6.83C175.38,53.84,175.04,55.15,175.06,56.33z"/>
		<path class="st0" d="M53.78,107.85c1.8,0.06,2.81,0.79,3.04,2.21c-0.1,2.43-0.55,3.71-1.32,3.84c-0.1,0.02-0.24,0.09-0.41,0.22
			c-0.51,0.09-0.94-0.14-1.3-0.69c0.2-1.24,0.24-2.2,0.13-2.89c-0.03-0.2-0.15-0.28-0.34-0.25c-1.7,0.53-2.49,1.22-2.36,2.05
			c0.36,2.23,1.6,4.33,3.71,6.32l0.32,0.1c0.46-0.53,1.33-1.33,2.6-2.39c2.65-2.39,5.22-3.9,7.71-4.51
			c1.06-0.98,1.92-1.52,2.57-1.63l0.19,0.27l0.07,0.44c-0.41,0.07-1.27,0.91-2.58,2.53c-1.78,1.42-4.58,3.67-8.39,6.74l-0.47,0.83
			c0.99,1.2,1.62,2.6,1.88,4.22c-0.24,2.1-1.28,3.98-3.12,5.64c-1.38,1.61-3.14,2.75-5.27,3.43c-2.68,0.04-4.13-0.63-4.35-2
			l-0.12-0.73c-0.13-0.81,0.43-1.96,1.68-3.44c0.85-1.55,2.71-3.86,5.6-6.95l0.1-0.32l-0.05-0.29c-2.87-3-4.47-5.5-4.79-7.51
			c-0.17-2.28,0.37-3.53,1.64-3.74C51.4,108.67,52.61,108.17,53.78,107.85z M48.94,131.56l0.02,0.15c0.1,0.29,0.46,0.38,1.09,0.27
			c1.6-0.26,3.4-1.71,5.42-4.36c-0.02-0.12,0.17-0.8,0.57-2.05l-0.19-1.18c-0.04-0.24-0.21-0.67-0.51-1.27l-0.58,0.09
			C50.73,127.81,48.79,130.59,48.94,131.56z"/>
		<path class="st0" d="M67.01,109.14l0.29-0.05c0.53-0.09,0.96,0.09,1.28,0.54l0.07,0.44c-1.14,3.41-1.56,6.09-1.24,8.04l0.26,1.62
			c0.12,0.76,0.5,1.25,1.13,1.47l1.16-0.19c1.29-0.21,3.33-2.05,6.12-5.53c0.29-0.05,0.53-0.39,0.73-1.02
			c0.14-0.02,1.23-1.61,3.26-4.76c0.15-0.02,0.24-0.34,0.29-0.96c0.52-0.49,0.92-0.75,1.22-0.8l0.14-0.02
			c0.2-0.01,0.31,0.07,0.34,0.24c-0.4,2.76-1.61,5.77-3.62,9.04c-2.43,3.27-4.64,5.34-6.61,6.21l-1.41,0.53
			c-3.46,0.17-5.42-1.22-5.9-4.16c-0.12,0.02-0.27-0.26-0.43-0.83c0.1-3.99,0.75-6.76,1.95-8.31L67.01,109.14z M73.07,95.78
			c1.05,0.03,1.6,0.04,1.65,0.03l0.07,0.44c-0.16,1.16-1.52,2.94-4.06,5.34c-1.29,1.12-2.28,1.73-2.99,1.85
			c-0.99,0.04-1.55-0.37-1.69-1.23c-0.12-0.73,1.25-2.12,4.11-4.15C70.83,97.36,71.8,96.59,73.07,95.78z"/>
		<path class="st0" d="M81.39,106.63c0.96-0.09,1.52,0.21,1.67,0.89l0.08,0.25c0.2,0.79,0.08,1.66-0.36,2.58l0.02,0.15l0.11-0.02
			c1.6-2.4,2.9-3.78,3.89-4.14c-0.05-0.17,0.34-0.53,1.17-1.1l0.87-0.14c1.92-0.31,3.17,0.69,3.77,3c-0.18,0.56-0.26,0.92-0.23,1.09
			l0.18,0.23c-0.23,2.4-0.26,3.95-0.07,4.65l0.22,0.91c0.04,0.12,0.21,0.21,0.49,0.29l0.25-0.04c2.3-1,4.31-2.45,6.02-4.34
			c1.71-1.89,2.9-3.53,3.57-4.92c0.46-0.85,0.81-1.35,1.07-1.48c0.25-0.13,0.51-0.12,0.75,0.03c0.25,0.15,0.19,0.69-0.18,1.63
			c-1.05,2.43-2.15,4.41-3.3,5.92c-1.15,1.51-2.61,2.97-4.37,4.39c-0.51,0.43-1.34,0.87-2.51,1.32c-2.66,0.16-4.21-0.58-4.65-2.21
			c-0.09-0.11-0.2-0.36-0.31-0.74c-0.14-0.58-0.03-2.67,0.33-6.27l-0.27-0.97c-0.05-0.17-0.16-0.24-0.33-0.21l-0.47,0.08
			c-1.26,1.29-2.53,2.79-3.79,4.51c-0.12,0.02-0.42,0.54-0.9,1.58c-0.32,0.18-0.89,1.3-1.73,3.38c-0.3,0.13-0.49,0.9-0.56,2.32
			c-0.68,1.97-1.14,3.04-1.39,3.2c0.04,0.07-0.11,0.18-0.43,0.33c-1.23-0.05-1.93-0.41-2.12-1.08l-0.02-0.11
			c-0.12-1.82,0.19-4.29,0.93-7.43c0.74-2.03,1.32-4.31,1.73-6.84C80.85,106.89,81.14,106.67,81.39,106.63z"/>
		<path class="st0" d="M128.83,95.57l0.55-0.09c1.56-0.05,2.43,0.46,2.6,1.53l0.05,0.33c-0.25,2.63-0.86,4.02-1.82,4.18
			c-0.8,0.13-1.43-0.24-1.9-1.12c0.19-1.14,0.27-1.82,0.23-2.03c-0.79,0.35-2.46,2.35-5.01,5.99c-0.71,2.25-1.02,3.61-0.95,4.08
			l0.17,1.07c0.15,0.95,1.32,1.25,3.5,0.89c5.37-1.74,9.26-4.99,11.67-9.76c0.31-0.05,1.07-0.87,2.25-2.44l0.47-0.08l0.47,1.54
			c-0.19,0.03-0.72,1-1.58,2.9c-0.24,0.04-0.97,1.1-2.17,3.18c-2.85,4.11-6.58,6.59-11.2,7.42l-0.69,0.11
			c-2.67,0.44-4.6-0.67-5.8-3.34l-0.07-0.44c-0.38-2.33,0.59-4.95,2.91-7.87C125.72,97.76,127.82,95.74,128.83,95.57z M140.02,99.69
			c0,0.02-0.01,0.04-0.03,0.04l0.24-0.57l0.01,0.07l0.04,0C140.24,99.24,140.15,99.39,140.02,99.69z"/>
		<path class="st0" d="M140.76,97.31c0.41-0.07,0.93,0.05,1.55,0.35c0.06,0.34-0.57,2.05-1.86,5.13c-0.28,0.9-0.35,2.32-0.21,4.26
			c0.26,0.41,0.5,0.62,0.7,0.64c0.97-0.16,2.71-1.7,5.23-4.63c1.26-1.74,2.69-3.98,4.29-6.74c0.65-0.31,1.22-0.5,1.7-0.58l0.44-0.07
			c0.14-0.02,0.38,0.19,0.7,0.64c0.03,0.2-0.42,1.07-1.37,2.64c-0.3,0.62-0.59,1.88-0.88,3.76l0.21,1.32
			c0.02,0.12,0.3,0.33,0.84,0.62c1.43-0.24,3.95-2.96,7.56-8.18c0.6-1.2,1.22-2.01,1.85-2.41l0.14-0.02
			c0.2-0.01,0.31,0.08,0.34,0.25c-0.36,2.39-1.86,5.61-4.49,9.64c-1.57,1.97-3.23,3.09-4.98,3.38l-0.14,0.02
			c-1.72,0.28-3.23-0.73-4.52-3.03c-2.57,3.54-4.31,5.38-5.23,5.54c-0.65,0.31-1.21,0.5-1.7,0.58c-1.6,0.26-2.79-0.65-3.58-2.73
			l-0.02-0.15c-0.47-2.91,0.35-6.17,2.46-9.75C139.98,97.74,140.31,97.58,140.76,97.31z"/>
		<path class="st0" d="M171.24,76.16c1.55-0.26,2.48,0.25,2.78,1.5c0.03,3.59-0.46,6.18-1.47,7.78c-1.16,2.53-3.09,5.01-5.78,7.43
			c-2.98,1.85-4.41,3.04-4.28,3.57c-0.35,0.94-0.4,3.06-0.17,6.36l0.32,1.3c0.29,1.16,1.06,1.64,2.32,1.43l0.58-0.09
			c2.01-0.33,4.03-1.53,6.06-3.6c1.39-1.23,2.64-2.6,3.74-4.12c0.1-0.45,1.05-1.68,2.84-3.71l1.09-2.29
			c0.43,0.08,0.67,0.19,0.69,0.34c-0.24,2.83-1.52,5.63-3.83,8.4c-3.22,4.4-6.46,6.87-9.71,7.4l-0.73,0.12
			c-2.35,0.39-4.25-0.6-5.7-2.98l-0.43-1.74c-0.22-2.63-0.08-4.56,0.45-5.81c-0.27-1.09-0.36-1.98-0.25-2.69
			c0.11-0.71,0.39-1.1,0.82-1.17c-0.08-0.34,0.22-1.19,0.89-2.56c-0.15-1.11,0.74-3.26,2.69-6.47
			C167.06,79.26,169.42,76.46,171.24,76.16z M163.78,91.71l0.32,0.1c2.86-2.16,4.91-4.7,6.16-7.65c0.59-0.65,1.13-2.4,1.62-5.24
			l-0.15-0.73c-0.9,0.15-2.43,1.96-4.61,5.44C164.92,87.81,163.81,90.5,163.78,91.71z"/>
		<path class="st0" d="M179.36,90.17c1.14,0.14,1.82,0.58,2.04,1.32c0.21,2.38,0.36,3.71,0.46,4l0.29-0.05
			c0.22-0.04,1.35-1.38,3.38-4.03c0.22-0.04,0.84-0.49,1.87-1.36l0.31,0.1c0.8-0.73,1.78-1.2,2.95-1.39
			c0.87-0.14,2.15,0.35,3.82,1.48l0.85,1.37c0.65,2.15-0.3,4.62-2.84,7.4c-1.07,1.11-2.85,2.46-5.36,4.05l0.06,0.14
			c0.11,0.36,0.91,0.48,2.41,0.36l0.44-0.07c6.21-2.83,10.66-7.2,13.33-13.13c0.45-1.38,1.23-2.16,2.35-2.35l0.02,0.15
			c-0.17,2.02-1.01,4.43-2.53,7.24c-3.13,4.51-6.37,7.58-9.71,9.21c-3.51,1.56-6.37,1.77-8.6,0.62c-1.82-1.41-2.79-2.1-2.91-2.08
			c-0.36,3.93-0.73,7.11-1.11,9.53c-0.45,4.47-1.4,7.95-2.84,10.42c-1.63,2.98-2.8,4.53-3.51,4.65l-0.58,0.09
			c-1.12-0.02-1.81-0.46-2.08-1.32l-0.11-0.43c0.22-0.34,0.3-1.06,0.25-2.15c0.46-4.12,1.21-8.06,2.27-11.83
			c0.68-0.11,0.84-0.74,0.48-1.89c0.52-0.31,0.76-0.55,0.71-0.72l-0.19-0.72c0.12-0.02,0.79-1.54,1.99-4.55l1.12-1.39
			c-0.15-0.45,0.04-1.34,0.58-2.66c0.18-1.01,0.11-2.61-0.21-4.79c0.14-0.02,0.16-0.48,0.04-1.36l-0.23-0.26
			C178.16,91.52,178.41,90.32,179.36,90.17z M173.74,116.87l0.08,0.29l0.15-0.02c0.19-0.03,0.26-0.15,0.21-0.34l-0.08-0.29
			l-0.14,0.02C173.75,116.59,173.68,116.71,173.74,116.87z M174.53,119l0.23,0.72c0.1,0.33,0.21,1.22,0.32,2.66l0.15-0.02
			c1.5-2.41,2.41-5.52,2.71-9.34c0.44-2.21,0.66-3.7,0.66-4.48l-0.29,0.05l-1.93,4.24c-0.19,1.11-0.65,2.5-1.38,4.15
			C175.19,117.64,175.04,118.32,174.53,119z M176.55,108.42l0.06,0.14c0.08,0.19,0.2,0.27,0.37,0.24l-0.14-0.43L176.55,108.42z
			 M181.85,102.12l0.15-0.02c0.22-0.04,0.65-0.26,1.31-0.67c0.73,0.08,1.35,0.08,1.86-0.01l0.29-0.05c0.73-0.12,2.43-1.35,5.11-3.71
			c1.17-2.03,1.68-3.72,1.53-5.08l-0.17-0.58c-0.22-0.77-0.72-1.09-1.5-0.96c-2.13,0.7-4.84,3.71-8.14,9.03
			C181.93,101.2,181.78,101.88,181.85,102.12z"/>
		<path class="st0" d="M210.67,83.88c0.97-0.16,2.18,0.24,3.63,1.21c1.26-0.21,1.96,0.13,2.1,1.01c0.1-0.02,0.15,0.03,0.17,0.12
			c-0.96,2.7-1.3,4.92-1.02,6.65l0.07,0.44c0.34,0.85,0.65,1.25,0.94,1.2l0.87-0.14c1.36-0.22,3.34-2.46,5.94-6.71
			c-0.04-0.27,0.54-0.97,1.75-2.1c0.08-0.74,0.38-1.34,0.9-1.8l0.15-0.02c0.04,0.27,0.19,0.55,0.43,0.83
			c-0.3,1.81-0.91,3.54-1.81,5.2c-2.53,4.79-4.92,7.37-7.15,7.74c-2.01,0.33-3.71-0.6-5.08-2.78l-0.05-0.29l-0.44,0.07
			c-3.05,3.62-5.57,5.59-7.56,5.92l-0.44,0.07c-1.89,0.31-3.27-0.52-4.13-2.49l-0.05-0.3c-0.43-2.67,1.11-5.79,4.61-9.35l3.65-3.31
			C208.11,84.7,208.95,84.32,210.67,83.88z M203.04,96.75l0.16,1.03c0.06,0.19,0.17,0.27,0.34,0.25l0.29-0.05
			c1.77-0.29,3.91-2.1,6.44-5.43c1.54-2.21,2.22-3.83,2.05-4.86l-0.02-0.15c-0.19-1.18-0.72-1.69-1.59-1.55
			c-2.23,1.17-4.44,3.45-6.66,6.83C203.36,94.26,203.02,95.57,203.04,96.75z"/>
		<path class="st0" d="M228.62,95.25l0.25-0.04c0.95-0.16,1.61,0.36,2.01,1.56c-0.17,1.09-0.7,1.7-1.57,1.84
			c-1.02,0.17-1.86-0.27-2.53-1.32C227.04,96.09,227.65,95.41,228.62,95.25z M229.68,88.14l0.76-0.13l0.08,0.48
			c0.04,0.22-0.12,0.92-0.48,2.11l-0.36,0.06c-0.41,0.07-0.65-0.12-0.73-0.56C228.95,88.88,229.2,88.22,229.68,88.14z M231.08,62.09
			l0.83-0.14c0.87,0.31,1.35,0.73,1.44,1.27c0.01,5.15-0.2,8.54-0.64,10.17c0.09,0.11,0.15,0.25,0.18,0.42
			c-0.67,6.67-1.23,10.33-1.7,10.98c-0.17,0.03-0.29,0.53-0.36,1.49l0.12,0.73c-0.32,0.05-0.49,0.5-0.53,1.33l-0.44,0.07
			c-0.41,0.07-0.65-0.11-0.72-0.52l-0.06-0.4c0.24-0.39,0.34-1.1,0.33-2.13l-0.36-2.2c0.56-0.09,0.73-1.9,0.51-5.43
			c0.36-0.06,0.58-0.19,0.65-0.37l-0.24-0.3l-0.1-0.62c0.21-0.39,0.29-0.73,0.24-1.02l-0.29,0.05c0.73-4.59,0.81-8.61,0.26-12.06
			C230.23,62.95,230.52,62.51,231.08,62.09z"/>
	</g>
	<g>
		<path class="st0" d="M18.08,88.91l-0.84-0.09c-0.76-0.53-1.11-1.06-1.06-1.6c1.31-4.98,2.38-8.19,3.22-9.66
			c-0.06-0.13-0.08-0.28-0.07-0.45c2.35-6.27,3.84-9.66,4.46-10.17c0.17,0.02,0.41-0.43,0.73-1.35l0.07-0.74
			c0.32,0.03,0.6-0.35,0.85-1.15l0.44,0.04c0.42,0.04,0.6,0.27,0.56,0.69l-0.04,0.41c-0.33,0.31-0.62,0.97-0.86,1.97l-0.22,2.22
			c-0.56-0.06-1.19,1.65-1.88,5.12c-0.37-0.04-0.61,0.02-0.72,0.19l0.15,0.35l-0.06,0.63c-0.3,0.32-0.47,0.63-0.5,0.92l0.29,0.03
			c-1.88,4.25-2.99,8.11-3.34,11.59C19.12,88.3,18.73,88.64,18.08,88.91z M26.1,64.11l-0.77-0.08l0.05-0.48
			c0.02-0.22,0.36-0.86,1.01-1.91l0.36,0.04c0.42,0.04,0.6,0.29,0.56,0.73C26.99,63.58,26.59,64.16,26.1,64.11z M28.94,57.51
			l-0.26-0.03c-0.95-0.1-1.47-0.77-1.54-2.03c0.45-1,1.11-1.46,1.99-1.37c1.03,0.1,1.72,0.75,2.1,1.93
			C30.69,57.12,29.92,57.61,28.94,57.51z"/>
	</g>
</g>
</svg>
