<?xml version="1.0" encoding="utf-8"?>
<!-- Generator: Adobe Illustrator 23.1.1, SVG Export Plug-In . SVG Version: 6.00 Build 0)  -->
<svg version="1.1" id="Capa_1" xmlns="http://www.w3.org/2000/svg" xmlns:xlink="http://www.w3.org/1999/xlink" x="0px" y="0px"
	 viewBox="0 0 54 54.6" style="enable-background:new 0 0 54 54.6;" xml:space="preserve">
<style type="text/css">
	.st0{fill:#4C3C2D;}
</style>
<path class="st0" d="M43.2,5.6H10c-2.9,0-5.3,2.4-5.3,5.3v33c0,2.9,2.4,5.3,5.3,5.3h33c2.9,0,5.3-2.4,5.3-5.3v-33
	C48.5,7.8,46.1,5.6,43.2,5.6z M44.8,43.9c0,0.8-0.6,1.5-1.5,1.5h-9.6V31h4.8l1.3-4.6h-6.1v-3.7c0-1.1,0.4-2.4,2.2-2.4H40v-4.6h-4.1
	c-4.3,0-6.8,4.3-6.8,6.6v4.1h-5V31h4.8v14.4H10c-0.8,0-1.6-0.6-1.6-1.5V10.6c0-0.8,0.6-1.6,1.6-1.6h33c0.8,0,1.5,0.6,1.5,1.6v33.2
	h0.2L44.8,43.9C44.8,43.9,44.8,43.9,44.8,43.9z"/>
</svg>
