<?xml version="1.0" encoding="utf-8"?>
<!-- Generator: Adobe Illustrator 23.1.1, SVG Export Plug-In . SVG Version: 6.00 Build 0)  -->
<svg version="1.1" id="Capa_1" xmlns="http://www.w3.org/2000/svg" xmlns:xlink="http://www.w3.org/1999/xlink" x="0px" y="0px"
	 viewBox="0 0 54 54.6" style="enable-background:new 0 0 54 54.6;" xml:space="preserve">
<style type="text/css">
	.st0{fill:#4C3C2D;}
</style>
<g>
	<g>
		<path class="st0" d="M37.8,13.4c-1.4,0-2.6,1.1-2.6,2.6s1.1,2.6,2.6,2.6c1.4,0,2.6-1.1,2.6-2.6S39.2,13.4,37.8,13.4z"/>
		<path class="st0" d="M34.9,5.6H18.2c-7.4,0-13.4,6-13.4,13.4v16.7c0,7.4,6,13.4,13.4,13.4h16.7c7.4,0,13.4-6,13.4-13.4V19
			C48.3,11.6,42.3,5.6,34.9,5.6z M44.6,36.2c0,5-4.1,9.2-9.2,9.2H17.8c-5.1,0-9.2-4.1-9.2-9.2V18.6c0-5.1,4.1-9.2,9.2-9.2h17.6
			c5,0,9.2,4.1,9.2,9.2C44.6,18.6,44.6,36.2,44.6,36.2z"/>
	</g>
	<path class="st0" d="M26.1,16.7c-6.1,0-10.9,5-10.9,10.9c0,6.1,5,10.9,10.9,10.9c6.1,0,10.9-5,10.9-10.9
		C37.2,21.7,32.2,16.7,26.1,16.7z M26.1,34.8c-3.9,0-7-3.2-7-7c0-3.9,3.2-7,7-7c3.9,0,7,3.2,7,7C33.2,31.5,30,34.8,26.1,34.8z"/>
</g>
</svg>
